<?xml version="1.0" encoding="utf-8"?>
<!-- Generator: Adobe Illustrator 19.1.0, SVG Export Plug-In . SVG Version: 6.00 Build 0)  -->
<svg version="1.1" id="Layer_1" xmlns="http://www.w3.org/2000/svg" xmlns:xlink="http://www.w3.org/1999/xlink" x="0px" y="0px"
	 viewBox="0 0 609.3 174.7" style="enable-background:new 0 0 609.3 174.7;" xml:space="preserve">
<style type="text/css">
	.st0{fill:#05344E;}
	.st1{fill:#053452;}
	.st2{fill:#1385A7;}
	.st3{fill:#0A5D70;}
	.st4{fill:#D4D8D9;}
	.st5{fill:#F3F3F1;}
	.st6{fill:#F2F2F0;}
</style>
<g>
	<g>
		<g>
			<path class="st0" d="M207.1,52.2h28.4c21.4,0,36.4,11.4,40,29.3c5,25.1-9.2,41.6-35.4,41.6h-32.8L207.1,52.2z M238.3,112
				c18.9,0,27.7-12.7,24.3-29.7c-2.3-11.7-11.3-18.9-26.2-18.9h-16.2l0.1,48.6H238.3z"/>
			<path class="st0" d="M280.9,100c-3.6-18.1,6.9-31.6,25.5-31.6c15.9,0,28,9.3,30.9,23.7c3.6,18.1-7,31.7-25.6,31.7
				C295.9,123.9,283.8,114.3,280.9,100z M324.7,92.8c-1.7-8.4-7.8-13.6-16.9-13.6c-10.6,0-16.8,8.3-14.4,20.3
				c1.7,8.4,7.8,13.6,16.9,13.6C321,113,327.1,104.7,324.7,92.8z"/>
			<path class="st0" d="M340.4,118l3.3-9.7c4.9,3.1,12.6,5.3,19.7,5.3c8.2,0,11.7-2.4,10.9-6.5c-1.8-8.9-29.4-2-33.1-20.4
				c-2.3-11.3,6.6-18.2,21.9-18.2c7.2,0,15.1,1.7,20.2,4.7l-2.7,9.7c-5.3-3-11.5-4.2-16.7-4.2c-8.1,0-11.5,2.8-10.7,6.6
				c1.9,9.3,29.5,2.3,33.1,20.4c2.4,11.9-7,18.2-22.1,18.2C354.9,123.9,345.5,121.3,340.4,118z"/>
			<path class="st0" d="M407.5,105c0.1,0.8,0.1,1.6,0.3,2.3c0.8,3.7,3.1,6.1,7.5,6.1c2.4,0,4.8-0.7,6.6-2.1l4.1,9.3
				c-3.3,2.4-7.9,3.2-12.3,3.2c-9.1,0-16.4-5.4-18.3-14.5c-0.3-1.3-0.4-2.7-0.5-4.3l0-25.5h-8.7l0-10.1h8.7l-0.1-12.4h12.6l0,12.4
				h14.5l0,10.1h-14.5L407.5,105z"/>
			<path class="st0" d="M482.5,69l0.2,54.1h-12l0-5.6c-3.7,4.1-9.2,6.3-16.2,6.3c-13.2,0-25.4-8.8-28.4-23.8
				c-3.7-18.4,6.7-31.6,23.9-31.6c8.3,0,15.2,2.8,20,8.6l-0.1-8H482.5z M469.9,92.8c-1.7-8.4-7.8-13.6-16.9-13.6
				c-10.6,0-16.8,8.3-14.4,20.3c1.7,8.4,7.8,13.6,16.9,13.6C466.2,113,472.3,104.7,469.9,92.8z"/>
			<path class="st0" d="M545.2,69l-22.8,54.1h-13L486.3,69h12.4l17,40.2L532.6,69H545.2z"/>
			<path class="st0" d="M599.8,69l0.2,54.1h-12l0-5.6c-3.7,4.1-9.2,6.3-16.2,6.3c-13.2,0-25.4-8.8-28.4-23.8
				c-3.7-18.4,6.7-31.6,23.9-31.6c8.3,0,15.2,2.8,20,8.6l-0.1-8H599.8z M587.3,92.8c-1.7-8.4-7.8-13.6-16.9-13.6
				c-10.6,0-16.8,8.3-14.4,20.3c1.7,8.4,7.8,13.6,16.9,13.6C583.6,113,589.7,104.7,587.3,92.8z"/>
		</g>
	</g>
	<g>
		<g>
			<path class="st1" d="M169,104.2c-4.4-2.3-7.3-5.8-9.5-10c-0.6-1.1-1-2.2-1.5-3.3c-2-4-3.7-4.7-7.9-3.6c0.6,6.1,1.5,12.1,1.8,18.1
				c0.5,9.8-4.1,17.2-11.9,22.7c-0.8,0.5-1.7,0.8-2.9,1.3c-1.7-11-3.2-21.7-5-32.3c-0.4-2.1-1.4-4.4-2.8-6c-3.5-4.1-8-6.5-13.6-6.2
				c-0.9,0.1-1.7-0.1-3-0.1c1.8-5.6,3.4-10.9,5.2-16.5c3.2,0.2,6.2,0.4,9.1,0.6c0.8-1.2,1.1-2.9,3.2-2c0.6,1,1.2,2.1,1.8,3.1
				c1.5,0.4,2.8,0.7,3.9,1c0.8,1,1.4,1.7,2.3,2.7c1-1.3,1.7-2.3,2.1-2.9c2.4-0.5,4.4-0.9,7.2-1.4c1.5,0.6,4,1.4,5.4,3.6
				c-2.6,6.1-1.9,10.4,2.3,12.6c1.6,0.9,3.8,1.1,5.6,1c3.6-0.2,5.2-3.2,6.8-5.7c0.5-3.3-0.4-5-0.4-5c-2.8-5.1-6.9-6.3-11.5-4.7
				c-4.5-2.8-8.6-5.4-12.7-8c-3.8-2.4-7.4-2.7-11,1.3c-1.5-1.1-3-2.2-5-3.7h-6.1c0.8-1.4,1.3-2.5,2-3.5c4-5.4,5.9-11.2,3.9-17.9
				c-0.3-1.1,0.1-2.5,0.2-4.3c3.3,1.4,6.1,2.7,9.5,0.9c-0.2-1.7-0.4-3.5-0.5-5c0.6-1,1.1-1.9,1.5-2.5c-0.6-1.9-3.9-2-2.2-4.6
				c2.6-1.6,6.2,0.5,9.4-2.7h-6.9c-1.9-6.1-6-8.8-11.7-9.1c-2.1-0.1-4.3,0.1-6.3,0.5c-6.9,1.4-10.3,5.9-10.5,12.9
				c-0.1,3.5,1,6.7,2.9,9c-2.9,2.6-5.7,4.6-8,7.2c-5.3,6.2-8.6,13.6-10.3,21.5c-0.9,4-1.4,8.1,1.8,12c-4.7,2.3-6.5,6.3-7.6,10.9
				c-1.1,4.9-0.4,9.2,4.6,12.9H85c-0.2-4.8-0.5-9.4-0.7-14.5c-17-0.2-32.9,3.1-48.7,9.1c2.5,8,4.8,15.5,7.2,23.2
				c6.1-1.7,11.6-3.3,17.2-4.9c1.2,2.6,1.1,4.7-0.3,6.9c-9.7,5-19.4,10.2-18.5,24.3c3.2-0.8,6-1.4,8.4-2c0.8-1.8,1.4-3.2,2.1-4.5
				c3.9-7,9.9-11.2,17.9-11.5c8.1-0.3,13.6,4.4,17.6,11c0.7,1.2,1.2,2.5,1.8,3.7c2,3.9,5.1,5.9,9.5,5.6c2.1-0.1,4.2-0.2,6.4-0.4
				c11.1-1,22.1-1.6,32.5,2c3.5-0.9,4.6-3.3,5.4-6c1.3-4.8,4.2-8.4,8.1-11.2c4.5-3.3,9.5-5.3,15.2-5.5c3.3-0.1,5.8-1.6,7.3-4.6
				C176.8,113,175.4,107.6,169,104.2z M64.6,113.8c-0.1-1.3-0.1-2-0.2-3.2c1.7-0.1,3.2-0.3,4.7-0.4c0.1,0.2,0.1,0.4,0.2,0.7
				C67.9,111.8,66.5,112.6,64.6,113.8z M123.1,137.9c-6.4,0.1-12.7,0.2-19.1,0.4c-5.9,0.1-9.4-2-11-6.8c-1.7-5.2-0.1-10,4.8-13
				c2.5-1.6,5.5-2.5,8.4-3.5c2.7-0.9,5.6-1.3,8.4-2c1.7-0.5,3.3-1.2,5.2-1.9c-0.2-1.4-0.3-2.3-0.5-3.7c-11.7,0.3-23.2,1.4-35.3,1.6
				c1.1-3.3,3.4-3,5.1-3.1c7.3-0.4,14.5-0.8,21.8-1.1c3.3-0.1,6.7,0,10.5,0c3.1,10.6,3.8,21.6,5.4,32.8
				C125.1,137.8,124.1,137.9,123.1,137.9z"/>
			<path class="st1" d="M88.3,42.9c0.3,6.5,0.6,12.5,0.9,19.1c-22.6,1.3-44.3,5.5-66,11.8c-2-6-3.8-11.7-5.8-17.8
				C40.4,49.1,64,46,88.3,42.9z"/>
			<path class="st2" d="M17.4,96.1c-1.8-5.2-3.5-10-5.3-15.3c21.1-6.6,42.5-12.9,65.1-16.1c0.4,5.9,0.8,11.3,1.3,17
				C57.5,84.8,37.1,88.9,17.4,96.1z"/>
			<path class="st2" d="M87.3,146.2c0,9.8-7.8,17.6-17.6,17.6c-9.9,0-17.8-8.1-17.7-18.1c0.2-9.7,8.1-17.3,17.9-17.2
				C79.8,128.6,87.3,136.3,87.3,146.2z"/>
			<path class="st2" d="M163.9,164c-9.4,0.1-17.1-7.4-17.2-16.9c-0.1-9.6,7.6-17.4,17.2-17.4c9.3,0.1,17,7.8,17,17.1
				C180.9,156.3,173.3,163.9,163.9,164z"/>
		</g>
		<path class="st2" d="M167.5,80.8c0.5-3.3-0.4-5-0.4-5c1-0.1,2-0.3,3.5-0.5c0.1,1.8,0.2,3.5,0.3,5.5H167.5z"/>
	</g>
</g>
</svg>
